<svg version="1.2" baseProfile="tiny-ps" xmlns="http://www.w3.org/2000/svg" viewBox="0 0 179 179" width="179" height="179">
	<title>New Project-svg</title>
	<style>
		tspan { white-space:pre }
		.shp0 { fill: #138046 } 
		.shp1 { fill: #000000 } 
		.shp2 { fill: #ffffff } 
	</style>
	<g id="NEW">
		<path id="Layer 3 copy" class="shp0" d="M20 0L159 0C170.06 0 179 8.94 179 20L179 159C179 170.06 170.06 179 159 179L20 179C8.94 179 0 170.06 0 159L0 20C0 8.94 8.94 0 20 0Z" />
		<path id="datagrid   " fill-rule="evenodd" class="shp1" d="M-582.44 64.02C-570.4 64.02 -559.34 70.18 -554.02 79L-554.02 38.4L-541.14 38.4L-541.14 142L-554.02 142L-554.02 127.58C-558.64 136.12 -568.58 143.26 -582.58 143.26C-603.16 143.26 -618.98 127.16 -618.98 103.36C-618.98 79.42 -603.16 64.02 -582.44 64.02ZM-580.06 75.08C-594.06 75.08 -605.96 85.3 -605.96 103.36C-605.96 121.42 -594.06 132.06 -580.06 132.06C-566.06 132.06 -554.02 121.56 -554.02 103.5C-554.02 85.72 -566.06 75.08 -580.06 75.08ZM-487.94 64.02C-473.66 64.02 -463.86 71.3 -459.38 79.28L-459.38 65.28L-446.5 65.28L-446.5 142L-459.38 142L-459.38 127.72C-464 135.98 -473.94 143.26 -488.08 143.26C-508.52 143.26 -524.34 127.16 -524.34 103.36C-524.34 79.42 -508.52 64.02 -487.94 64.02ZM-485.42 75.08C-499.42 75.08 -511.32 85.3 -511.32 103.36C-511.32 121.42 -499.42 132.06 -485.42 132.06C-471.42 132.06 -459.38 121.56 -459.38 103.5C-459.38 85.72 -471.42 75.08 -485.42 75.08ZM-422.14 75.78L-432.08 75.78L-432.08 65.28L-422.14 65.28L-422.14 45.96L-409.4 45.96L-409.4 65.28L-389.38 65.28L-389.38 75.78L-409.4 75.78L-409.4 121C-409.4 128.56 -406.6 131.22 -398.76 131.22L-389.38 131.22L-389.38 142L-400.86 142C-414.44 142 -422.14 136.4 -422.14 121L-422.14 75.78ZM-342.34 64.02C-328.06 64.02 -318.26 71.3 -313.78 79.28L-313.78 65.28L-300.9 65.28L-300.9 142L-313.78 142L-313.78 127.72C-318.4 135.98 -328.34 143.26 -342.48 143.26C-362.92 143.26 -378.74 127.16 -378.74 103.36C-378.74 79.42 -362.92 64.02 -342.34 64.02ZM-339.82 75.08C-353.82 75.08 -365.72 85.3 -365.72 103.36C-365.72 121.42 -353.82 132.06 -339.82 132.06C-325.82 132.06 -313.78 121.56 -313.78 103.5C-313.78 85.72 -325.82 75.08 -339.82 75.08ZM-247.7 64.02C-233.7 64.02 -223.62 71.02 -219.14 79.28L-219.14 65.28L-206.26 65.28L-206.26 143.68C-206.26 164.82 -220.4 179.8 -242.94 179.8C-263.1 179.8 -277.52 169.58 -280.04 153.2L-267.44 153.2C-264.64 162.44 -255.54 168.74 -242.94 168.74C-229.36 168.74 -219.14 160.06 -219.14 143.68L-219.14 127.58C-223.76 135.84 -233.7 143.26 -247.7 143.26C-268.28 143.26 -284.1 127.16 -284.1 103.36C-284.1 79.42 -268.28 64.02 -247.7 64.02ZM-245.18 75.08C-259.18 75.08 -271.08 85.3 -271.08 103.36C-271.08 121.42 -259.18 132.06 -245.18 132.06C-231.18 132.06 -219.14 121.56 -219.14 103.5C-219.14 85.72 -231.18 75.08 -245.18 75.08ZM-171.96 142L-184.7 142L-184.7 65.28L-171.96 65.28L-171.96 77.74C-167.62 69.2 -159.36 63.88 -147.18 63.88L-147.18 77.04L-150.54 77.04C-162.72 77.04 -171.96 82.5 -171.96 100.28L-171.96 142ZM-132.48 65.28L-119.74 65.28L-119.74 142L-132.48 142L-132.48 65.28ZM-134.58 44.14C-134.58 39.24 -130.8 35.46 -125.9 35.46C-121.28 35.46 -117.5 39.24 -117.5 44.14C-117.5 49.04 -121.28 52.82 -125.9 52.82C-130.8 52.82 -134.58 49.04 -134.58 44.14ZM-66.26 64.02C-54.22 64.02 -43.16 70.18 -37.84 79L-37.84 38.4L-24.96 38.4L-24.96 142L-37.84 142L-37.84 127.58C-42.46 136.12 -52.4 143.26 -66.4 143.26C-86.98 143.26 -102.8 127.16 -102.8 103.36C-102.8 79.42 -86.98 64.02 -66.26 64.02ZM-63.88 75.08C-77.88 75.08 -89.78 85.3 -89.78 103.36C-89.78 121.42 -77.88 132.06 -63.88 132.06C-49.88 132.06 -37.84 121.56 -37.84 103.5C-37.84 85.72 -49.88 75.08 -63.88 75.08Z" />
		<path id="XL " class="shp2" d="M62 79L75.5 57L95.5 57L73 92L96 127L76 127L62 105L48 127L28 127L51 92L28.5 57L48.4 57L62 79ZM119 57L119 113L155.5 113L155.5 127L101 127L101 57L119 57Z" />
	</g>
</svg>